<svg width="20" height="21" viewBox="0 0 20 21" fill="none" xmlns="http://www.w3.org/2000/svg">
<path d="M1.20654 6.72685C0.930759 6.45107 0.482616 6.45107 0.206835 6.72685C-0.068945 7.00263 -0.068945 7.45077 0.206835 7.72655L3.46449 10.9842C3.60238 11.1221 3.77474 11.191 3.96434 11.191C3.98158 11.191 3.98158 11.191 3.99881 11.191C4.18841 11.1738 4.37801 11.0876 4.5159 10.9325L12.6687 1.15954C12.91 0.866519 12.8755 0.418376 12.5825 0.159832C12.2895 -0.0814757 11.8413 -0.0470032 11.5828 0.246013L3.91263 9.43295L1.20654 6.72685Z" transform="translate(4.66235 2.69727)" fill="#667EEA"/>
<path d="M15.28 1.52958C11.3156 -0.952447 6.23091 -0.366414 2.92155 2.94295C-0.973849 6.83835 -0.973849 13.1985 2.92155 17.0939C4.86925 19.0416 7.43745 20.0241 9.98842 20.0241C12.5394 20.0241 15.1076 19.0416 17.0553 17.0939C20.3819 13.7673 20.9507 8.66539 18.4514 4.70105C18.2446 4.37356 17.8137 4.27014 17.4862 4.47698C17.1587 4.68381 17.0553 5.11472 17.2621 5.44221C19.4167 8.85499 18.9168 13.233 16.0556 16.0942C12.7117 19.4381 7.24785 19.4381 3.90401 16.0942C0.560179 12.7504 0.560179 7.28649 3.90401 3.94265C6.76524 1.09867 11.126 0.598817 14.5388 2.71888C14.8663 2.92571 15.2972 2.8223 15.504 2.49481C15.7109 2.16732 15.6074 1.73641 15.28 1.52958Z" fill="#667EEA"/>
</svg>
