<svg width="10" height="10" viewBox="0 0 10 10" fill="none" xmlns="http://www.w3.org/2000/svg">
<path d="M9.84533 9.06991L5.77026 5.00309L9.83708 0.936275C10.0516 0.721798 10.0516 0.375335 9.83708 0.169107C9.6226 -0.0453702 9.27614 -0.0453702 9.06991 0.169107L5.00309 4.23592L0.936276 0.160858C0.721798 -0.0536193 0.375335 -0.0536193 0.169107 0.160858C-0.0453702 0.375335 -0.0453702 0.721798 0.169107 0.928026L4.23592 4.99484L0.160858 9.06991C-0.0536193 9.28439 -0.0536193 9.63085 0.160858 9.83708C0.268097 9.94432 0.400082 9.99381 0.548567 9.99381C0.697051 9.99381 0.829037 9.93607 0.936276 9.83708L5.00309 5.77026L9.06991 9.83708C9.17715 9.94432 9.30914 9.99381 9.45762 9.99381C9.59786 9.99381 9.73809 9.93607 9.84533 9.83708C10.0516 9.63085 10.0516 9.28439 9.84533 9.06991Z" fill="#BDBDBD"/>
</svg>
