<svg width="12" height="7" viewBox="0 0 12 7" fill="none" xmlns="http://www.w3.org/2000/svg">
<path d="M11.8116 0.193309C11.6927 0.0743494 11.5242 0.00495663 11.3457 0.00495663C11.1673 0.00495663 11.0087 0.0743494 10.8798 0.193309L6.00248 5.09046L1.11524 0.193309C0.857497 -0.0644362 0.44114 -0.0644362 0.193309 0.193309C-0.0644362 0.451053 -0.0644362 0.86741 0.193309 1.11524L5.53656 6.45849C5.66543 6.58736 5.82404 6.64684 6.00248 6.64684C6.171 6.64684 6.33953 6.57745 6.4684 6.45849L11.7918 1.12515C11.9207 1.0062 11.9901 0.83767 12 0.659232C12 0.490706 11.9306 0.322181 11.8116 0.193309Z" fill="#BDBDBD"/>
</svg>
