<svg width="12" height="12" viewBox="0 0 12 12" fill="none" xmlns="http://www.w3.org/2000/svg">
<path d="M11.562 3.10877e-07H0.41766C0.183363 3.10877e-07 -1.94298e-08 0.19355 -1.94298e-08 0.41766C-1.94298e-08 0.64177 0.19355 0.83532 0.41766 0.83532H11.5722C11.8065 0.83532 11.9899 0.64177 11.9899 0.41766C11.9899 0.19355 11.7963 3.10877e-07 11.562 3.10877e-07Z" transform="translate(0.0102539 10.9406)" fill="#BDBDBD"/>
<path d="M0.0101868 7.24283L-9.71491e-09 9.22926C-9.71491e-09 9.34132 0.0407473 9.45337 0.122242 9.53487C0.203737 9.61636 0.305605 9.65711 0.41766 9.65711L2.3939 9.64692C2.50596 9.64692 2.60783 9.60618 2.68932 9.52468L9.51449 2.69951C9.67748 2.53652 9.67748 2.27166 9.51449 2.09849L7.55862 0.122242C7.39564 -0.0407473 7.13078 -0.0407473 6.9576 0.122242L5.59257 1.49746L0.132429 6.94741C0.061121 7.02891 0.0101868 7.13078 0.0101868 7.24283ZM7.26321 1.01868L8.63843 2.3939L7.86423 3.1681L6.48901 1.79288L7.26321 1.01868ZM0.855693 7.4262L5.88798 2.3939L7.26321 3.76913L2.23091 8.79123L0.845506 8.80142L0.855693 7.4262Z" fill="#BDBDBD"/>
</svg>
