<svg width="18" height="18" viewBox="0 0 18 18" fill="none" xmlns="http://www.w3.org/2000/svg">
<path d="M17.343 4.66313e-07H0.626486C0.275043 4.66313e-07 -2.91445e-08 0.290323 -2.91445e-08 0.626486C-2.91445e-08 0.962649 0.290323 1.25297 0.626486 1.25297H17.3582C17.7097 1.25297 17.9847 0.962649 17.9847 0.626486C17.9847 0.290323 17.6944 4.66313e-07 17.343 4.66313e-07Z" transform="translate(0.0151367 16.4109)" fill="white"/>
<path d="M0.0152801 10.8642L-1.45723e-08 13.8438C-1.45723e-08 14.0119 0.0611206 14.18 0.183362 14.3022C0.305603 14.4244 0.458404 14.4856 0.626486 14.4856L3.59083 14.4703C3.75891 14.4703 3.91171 14.4092 4.03396 14.2869L14.2716 4.04924C14.5161 3.80475 14.5161 3.40747 14.2716 3.14771L11.3379 0.183362C11.0934 -0.0611205 10.6961 -0.0611205 10.4363 0.183362L8.38879 2.24618L0.198642 10.4211C0.0916808 10.5433 0.0152801 10.6961 0.0152801 10.8642ZM10.8947 1.52801L12.9576 3.59083L11.7963 4.75212L9.73345 2.6893L10.8947 1.52801ZM1.28353 11.1392L8.83192 3.59083L10.8947 5.65365L3.34635 13.1868L1.26825 13.202L1.28353 11.1392Z" fill="white"/>
</svg>
