<svg width="12" height="12" viewBox="0 0 12 12" fill="none" xmlns="http://www.w3.org/2000/svg">
<path d="M5.69561 6.27343C5.77816 6.35598 5.88134 6.39725 5.99484 6.39725C6.10834 6.39725 6.21152 6.35598 6.29407 6.27343L9.07997 3.48753C9.1006 3.4669 9.12124 3.44626 9.13156 3.42562C9.13156 3.42562 9.14187 3.41531 9.14187 3.40499C9.15219 3.38435 9.16251 3.36371 9.17283 3.3534C9.17283 3.34308 9.17283 3.33276 9.18315 3.33276C9.19347 3.31212 9.19347 3.30181 9.20378 3.28117C9.2141 3.25022 9.2141 3.22958 9.2141 3.19862C9.2141 3.16767 9.2141 3.14703 9.20378 3.11608C9.20378 3.09544 9.19347 3.07481 9.18315 3.06449C9.18315 3.05417 9.18315 3.04385 9.17283 3.04385C9.16251 3.02322 9.15219 3.00258 9.14187 2.98194C9.14187 2.98194 9.14187 2.97163 9.13156 2.97163C9.12124 2.95099 9.1006 2.93035 9.07997 2.90972L6.29407 0.123818C6.12898 -0.0412727 5.8607 -0.0412727 5.69561 0.123818C5.53052 0.288908 5.53052 0.55718 5.69561 0.72227L7.75924 2.7859H0.423044C0.185727 2.7859 1.57442e-07 2.97162 1.57442e-07 3.20894C1.57442e-07 3.44626 0.185727 3.63199 0.423044 3.63199H7.75924L5.69561 5.69562C5.53052 5.84007 5.53052 6.10834 5.69561 6.27343Z" transform="translate(2.78613 2.80655)" fill="#BDBDBD"/>
<path d="M0.423044 11.9794H5.99484C6.23216 11.9794 6.41788 11.7936 6.41788 11.5563V7.39811C6.41788 7.16079 6.23216 6.97506 5.99484 6.97506C5.75752 6.97506 5.5718 7.16079 5.5718 7.39811V11.1333H0.846088V0.846088H5.5718V4.58125C5.5718 4.81857 5.75752 5.0043 5.99484 5.0043C6.23216 5.0043 6.41788 4.81857 6.41788 4.58125V0.423044C6.41788 0.185727 6.23216 9.84015e-09 5.99484 9.84015e-09H0.423044C0.185727 9.84015e-09 9.84015e-09 0.185727 9.84015e-09 0.423044V11.5563C0.0103182 11.7936 0.196045 11.9794 0.423044 11.9794Z" fill="#BDBDBD"/>
</svg>
