<svg width="16" height="13" viewBox="0 0 16 13" fill="none" xmlns="http://www.w3.org/2000/svg">
<path d="M0.013013 12.5315C0.013013 12.5445 0.013013 12.5576 0.026026 12.5836C0.026026 12.5966 0.039039 12.6226 0.039039 12.6356C0.039039 12.6486 0.0520521 12.6617 0.0520521 12.6877C0.0650651 12.7007 0.0650651 12.7137 0.0780781 12.7397C0.0910911 12.7528 0.0910911 12.7658 0.104104 12.7788C0.117117 12.7918 0.13013 12.8048 0.13013 12.8178C0.143143 12.8308 0.156156 12.8438 0.169169 12.8569L0.182182 12.8699C0.182182 12.8699 0.195195 12.8699 0.195195 12.8829C0.234234 12.9219 0.286286 12.9479 0.338338 12.961C0.351351 12.961 0.351351 12.961 0.364364 12.974C0.416416 12.987 0.468468 13 0.52052 13H14.5616C14.6136 13 14.6657 12.987 14.7177 12.974C14.7307 12.974 14.7307 12.974 14.7437 12.961C14.7958 12.9349 14.8478 12.9089 14.8869 12.8829C14.8869 12.8829 14.8999 12.8829 14.8999 12.8699L14.9129 12.8569C14.9259 12.8438 14.9389 12.8308 14.952 12.8178C14.965 12.8048 14.978 12.7918 14.978 12.7788C14.991 12.7658 14.991 12.7528 15.004 12.7397C15.017 12.7267 15.017 12.7137 15.03 12.6877C15.043 12.6747 15.043 12.6617 15.043 12.6356C15.043 12.6226 15.0561 12.5966 15.0561 12.5836C15.0561 12.5706 15.0691 12.5576 15.0691 12.5315C15.0691 12.5185 15.0691 12.4925 15.0691 12.4795C15.0691 12.4665 15.0691 12.4665 15.0691 12.4535V0.533534C15.0691 0.234234 14.8348 4.96407e-08 14.5355 4.96407e-08H0.533534C0.234234 4.96407e-08 1.24102e-08 0.234234 1.24102e-08 0.533534V12.4535C1.24102e-08 12.4665 1.24102e-08 12.4665 1.24102e-08 12.4795C0.013013 12.4925 0.013013 12.5055 0.013013 12.5315ZM1.67868 11.9199L5.62162 7.20921L7.26126 8.35435C7.35235 8.41942 7.45646 8.44545 7.56056 8.44545C7.66466 8.44545 7.76877 8.41942 7.85986 8.35435L9.4995 7.20921L13.4424 11.9199H1.67868ZM14.0541 10.983L10.3714 6.5976L14.041 4.03403V10.983H14.0541ZM1.08008 1.06707H14.0541V2.74575L7.57357 7.26126L1.08008 2.74575V1.06707ZM1.08008 4.03403L4.74975 6.5976L1.08008 10.983V4.03403Z" fill="#66EACA"/>
</svg>
