<svg width="16" height="15" viewBox="0 0 16 15" fill="none" xmlns="http://www.w3.org/2000/svg">
<path d="M14.8498 7.12793L7.87688 0.154955C7.78649 0.0645646 7.64444 0 7.5024 0C7.36036 0 7.21832 0.0645646 7.12793 0.154955L0.154955 7.12793C-0.0516516 7.33453 -0.0516516 7.67027 0.154955 7.87688C0.258258 7.98018 0.387387 8.03183 0.529429 8.03183C0.671471 8.03183 0.800601 7.98018 0.903904 7.87688L6.97297 1.80781V14.4754C6.97297 14.7724 7.2054 15.0048 7.5024 15.0048C7.7994 15.0048 8.03183 14.7724 8.03183 14.4754V1.80781L14.1009 7.87688C14.3075 8.08348 14.6432 8.08348 14.8498 7.87688C15.0565 7.67027 15.0435 7.33453 14.8498 7.12793Z" transform="translate(15.0048) rotate(90)" fill="#BDBDBD"/>
</svg>
