<svg width="14" height="14" viewBox="0 0 14 14" fill="none" xmlns="http://www.w3.org/2000/svg">
<path d="M9.05067 0C6.44156 0 4.31886 2.1227 4.31886 4.73181C4.31886 5.31185 4.42192 5.87552 4.62541 6.4108L0.101008 10.9355C0.0363398 11.0002 -2.03401e-09 11.0879 -2.03401e-09 11.1794V13.6552C-2.03401e-09 13.8456 0.154383 14 0.344832 14H2.38511C2.47647 14 2.56408 13.9638 2.62875 13.8992L3.3163 13.2127C3.38111 13.148 3.4175 13.0602 3.4175 12.9686V12.1244H4.2607C4.45115 12.1244 4.60554 11.97 4.60554 11.7796V11.4416H4.94353C5.13395 11.4416 5.28836 11.2872 5.28836 11.0968V10.3547H6.03036C6.1218 10.3547 6.20949 10.3184 6.27419 10.2537L7.37125 9.15668C7.90661 9.36037 8.47036 9.46356 9.05062 9.46356C11.6597 9.46356 13.7824 7.34087 13.7824 4.73175C13.7825 2.1227 11.6598 0 9.05067 0ZM9.05067 8.7739C8.48624 8.7739 7.94035 8.6599 7.42812 8.43503C7.29567 8.37689 7.14651 8.40889 7.04884 8.50407C7.04777 8.50508 7.04673 8.5059 7.04569 8.50697L5.88757 9.66509H4.94359C4.75314 9.66509 4.59875 9.81947 4.59875 10.0099V10.7519H4.26076C4.07034 10.7519 3.91593 10.9063 3.91593 11.0968V11.4347H3.0727C2.88228 11.4347 2.72787 11.5891 2.72787 11.7796V12.8256L2.24243 13.3103H0.689719V12.823L4.90451 8.60825C5.02573 8.48704 5.02573 8.29054 4.90451 8.16936C4.7833 8.04817 4.58686 8.04811 4.46556 8.16936L0.689719 11.9452V11.3222L5.27516 6.73646C5.2762 6.73542 5.27699 6.73446 5.27795 6.73345C5.37316 6.63586 5.40526 6.4867 5.34713 6.35414C5.12247 5.84194 5.00861 5.29607 5.00861 4.73184C5.00861 2.50299 6.82191 0.689691 9.05075 0.689691C11.2796 0.689691 13.0928 2.50296 13.0928 4.73184C13.0928 6.96063 11.2795 8.7739 9.05067 8.7739Z" fill="#BDBDBD"/>
<path d="M1.29164 -7.67708e-08C0.579414 -7.67708e-08 2.67029e-08 0.579414 2.67029e-08 1.29164C2.67029e-08 2.00386 0.579414 2.58327 1.29164 2.58327C2.00386 2.58327 2.58327 2.00386 2.58327 1.29164C2.58327 0.579414 2.00389 -7.67708e-08 1.29164 -7.67708e-08ZM1.29164 1.89361C0.959711 1.89361 0.689664 1.62356 0.689664 1.29164C0.689664 0.959711 0.959711 0.689664 1.29164 0.689664C1.62356 0.689664 1.89361 0.959711 1.89361 1.29164C1.89361 1.62356 1.62356 1.89361 1.29164 1.89361Z" transform="translate(9.19904 2)" fill="#BDBDBD"/>
</svg>
