<svg width="15" height="14" viewBox="0 0 15 14" fill="none" xmlns="http://www.w3.org/2000/svg">
<path d="M3.9344 7.85576C6.10772 7.85576 7.8688 6.09467 7.8688 3.92136C7.8688 1.74804 6.10772 0 3.9344 0C1.76109 0 0 1.76109 0 3.92136C0 6.08163 1.76109 7.85576 3.9344 7.85576ZM3.9344 1.02534C5.52851 1.02534 6.83041 2.32985 6.83041 3.92136C6.83041 5.51286 5.5259 6.81737 3.9344 6.81737C2.3429 6.81737 1.03839 5.51286 1.03839 3.92136C1.03839 2.32985 2.34029 1.02534 3.9344 1.02534Z" transform="translate(3.39172)" fill="#BDBDBD"/>
<path d="M0.519195 5.45546H14.18C14.4696 5.45546 14.6992 5.22587 14.6992 4.93627C14.6992 2.22028 12.4894 0 9.76295 0H4.93627C2.22028 0 0 2.20984 0 4.93627C0 5.22587 0.229594 5.45546 0.519195 5.45546ZM4.93627 1.03839H9.76295C11.7432 1.03839 13.3712 2.50988 13.6243 4.41707H1.07492C1.32799 2.52292 2.95602 1.03839 4.93627 1.03839Z" transform="translate(0 8.54449)" fill="#BDBDBD"/>
</svg>
